<?xml version="1.0" encoding="UTF-8"?>
<svg id="Layer_2" data-name="Layer 2" xmlns="http://www.w3.org/2000/svg" viewBox="0 0 466.25 425.03">
  <defs>
    <style>
      .cls-1 {
        fill: #262626;
      }

      .cls-1, .cls-2, .cls-3 {
        stroke: #fff;
        stroke-linecap: round;
        stroke-miterlimit: 10;
      }

      .cls-1, .cls-3 {
        stroke-width: 10.45px;
      }

      .cls-2 {
        stroke-width: 15px;
      }

      .cls-2, .cls-3 {
        fill: none;
      }
    </style>
  </defs>
  <g id="Layer_1-2" data-name="Layer 1">
    <g>
      <g>
        <path class="cls-2" d="M421.01,246.6c23.85,17.44,37.74,38.39,37.74,60.93,0,60.75-101.02,110-225.62,110S7.5,368.28,7.5,307.53s101.02-110,225.62-110c20.19,0,39.75,1.29,58.37,3.72"/>
        <path class="cls-2" d="M389.94,228.44c5.3,2.5,10.36,5.13,15.14,7.87"/>
        <path class="cls-2" d="M314.45,204.89c10.74,2.02,21.09,4.44,30.97,7.21,8.05,2.26,15.78,4.75,23.17,7.45"/>
      </g>
      <g>
        <polygon class="cls-1" points="309.67 333.65 160.85 333.65 126 71.66 344.52 71.66 309.67 333.65"/>
        <polygon class="cls-3" points="319.81 257.42 150.71 257.42 136.14 147.9 334.38 147.9 319.81 257.42"/>
        <polygon class="cls-1" points="364.98 71.66 101.27 71.66 122.18 38.44 344.07 38.44 364.98 71.66"/>
        <polygon class="cls-1" points="333.49 38.44 132.76 38.44 148.68 5.23 317.57 5.23 333.49 38.44"/>
      </g>
    </g>
  </g>
</svg>