<?xml version="1.0" encoding="UTF-8"?>
<svg id="Layer_2" data-name="Layer 2" xmlns="http://www.w3.org/2000/svg" viewBox="0 0 708.33 901.04">
  <defs>
    <style>
      .cls-1, .cls-2, .cls-3, .cls-4, .cls-5 {
        stroke-width: 0px;
      }

      .cls-1, .cls-6 {
        fill: #ccc;
      }

      .cls-2 {
        fill: #161616;
      }

      .cls-7 {
        letter-spacing: -.03em;
      }

      .cls-3 {
        fill: #5e4d3e;
      }

      .cls-6 {
        font-family: Nord-Black, Nord;
        font-size: 38.58px;
        font-weight: 800;
      }

      .cls-4 {
        fill: #a0a0a0;
      }

      .cls-8 {
        letter-spacing: 0em;
      }

      .cls-5 {
        fill: #3f342b;
      }
    </style>
  </defs>
  <g id="Layer_1-2" data-name="Layer 1">
    <g>
      <polygon class="cls-4" points="604.16 893.54 104.16 893.54 54.16 93.54 654.16 93.54 604.16 893.54"/>
      <polygon class="cls-1" points="674.17 73.54 673.67 81.48 669.44 149.18 668.67 161.48 657.43 161.48 645.48 352.69 626.07 663.31 612.93 873.54 124.17 873.54 111.42 669.55 111.03 663.31 110.64 657.08 92.01 358.92 91.62 352.69 91.23 346.46 79.67 161.48 78.9 149.18 75.42 93.54 74.67 81.48 74.17 73.54 674.17 73.54"/>
      <path class="cls-5" d="M702.18,140.48c-.07,8.09-6.66,14.85-15.01,14.85H21.16c-9.03,0-16.01-7.91-14.89-16.86l6.25-50c.94-7.51,7.32-13.14,14.89-13.14h653.51c7.57,0,13.95,5.63,14.89,13.14l6.25,50c.08.68.12,1.35.12,2.01Z"/>
      <path class="cls-3" d="M702.18,140.48H26.64c-3.01,0-5.34-2.64-4.96-5.62l7.44-59.53h25.04l4.25-14.85h591.51l4.24,14.85h26.76c7.57,0,13.95,5.63,14.89,13.14l6.25,50c.08.68.12,1.35.12,2.01Z"/>
      <path class="cls-5" d="M654.16,75.33H54.16l4.25-14.85,12.65-44.27c1.84-6.44,7.72-10.88,14.42-10.88h537.37c6.7,0,12.58,4.44,14.42,10.88l12.65,44.27,4.24,14.85Z"/>
      <path class="cls-3" d="M649.92,60.48H75.1l15.76-55.15h531.99c6.7,0,12.58,4.44,14.42,10.88l12.65,44.27Z"/>
      <polygon class="cls-3" points="618.55 663.31 89.77 663.31 70.36 352.69 637.96 352.69 618.55 663.31"/>
      <polygon class="cls-5" points="618.55 663.31 89.77 663.31 70.36 352.69 637.96 352.69 618.55 663.31"/>
      <polygon class="cls-3" points="645.48 352.69 626.07 663.31 109.78 663.31 109.39 657.08 90.75 358.92 90.36 352.69 645.48 352.69"/>
      <path class="cls-2" d="M708.16,137.71l-6.25-50c-1.32-10.57-10.34-18.53-20.99-18.53h-22.98l-15.55-54.43c-2.48-8.69-10.51-14.75-19.54-14.75H85.48c-9.02,0-17.06,6.06-19.54,14.75l-15.57,54.43h-22.96c-10.65,0-19.67,7.96-20.99,18.53L.17,137.71c-.76,6.01,1.11,12.07,5.13,16.62,4.01,4.54,9.79,7.15,15.86,7.15h29.74l46.22,739.56h514.09l1.72-27.5,13.14-210.23,19.41-310.62,11.95-191.21h29.74c11.57,0,21.06-9.4,21.16-20.95v-.05c0-.9-.05-1.82-.17-2.77ZM76.18,17.67c1.18-4.13,5.01-7.01,9.3-7.01h537.37c4.29,0,8.12,2.88,9.3,7.01l14.72,51.51H61.46l14.72-51.51ZM597.12,886.04H111.21l-13.53-216.49h512.97l-12.75,203.99-.78,12.5ZM611.43,657.08H96.9l-18.63-298.16h551.79l-18.63,298.16ZM77.49,346.46l-11.56-184.98h576.47l-11.56,184.98H77.49ZM687.17,149.18H21.16c-2.58,0-4.94-1.07-6.64-3-1.7-1.93-2.47-4.39-2.15-6.95l6.25-50c.56-4.42,4.34-7.75,8.79-7.75h653.51c4.46,0,8.23,3.33,8.79,7.75l6.24,49.96c.05.43.08.85.08,1.26-.06,4.82-4.03,8.73-8.86,8.73Z"/>
      <g>
        <g>
          <path class="cls-2" d="M255.17,492.98c1.36-3.25,2.04-6.89,2.04-10.95v-10.8c0-2.88-.36-5.59-1.07-8.11-.71-2.52-1.68-4.73-2.93-6.62-1.24-1.89-2.69-3.38-4.35-4.46-1.65-1.08-3.43-1.62-5.32-1.62h-16.79v67.55h9.95v-15.13h3.11l5.77,15.13h10.92l-6.66-17.56c2.19-1.71,3.96-4.19,5.33-7.43ZM247.27,482.03c0,1.54-.38,2.84-1.11,3.92-.75,1.08-1.62,1.62-2.62,1.62h-6.84v-22.02h6.84c1,0,1.87.57,2.62,1.69.73,1.13,1.11,2.46,1.11,3.99v10.8Z"/>
          <path class="cls-2" d="M295.03,458.06c-.41-1.49-.99-2.79-1.73-3.92-.74-1.13-1.61-2.03-2.62-2.7-1-.68-2.07-1.02-3.19-1.02h-14.12c-1.13,0-2.19.34-3.2,1.02-1,.67-1.88,1.57-2.62,2.7-.74,1.13-1.31,2.43-1.73,3.92-.41,1.48-.62,3.08-.62,4.79v42.69c0,1.71.21,3.31.62,4.79.42,1.49.99,2.8,1.73,3.92.74,1.13,1.62,2.03,2.62,2.7,1.01.68,2.07,1.02,3.2,1.02h14.12c1.12,0,2.19-.34,3.19-1.02,1.01-.67,1.88-1.57,2.62-2.7.74-1.12,1.32-2.43,1.73-3.92.42-1.48.62-3.08.62-4.79v-42.69c0-1.71-.2-3.31-.62-4.79ZM285.71,502.84h-10.57v-37.29h10.57v37.29Z"/>
          <path class="cls-2" d="M334.99,493.72c-.3-4.1-1.39-7.77-3.29-11.01,1.66-3.15,2.58-6.62,2.76-10.4.17-3.79-.23-7.3-1.2-10.54-.98-3.24-2.49-5.94-4.53-8.1-2.04-2.17-4.46-3.25-7.24-3.25h-16.96v67.55h16.87c3.08,0,5.7-1.22,7.86-3.65,2.16-2.43,3.73-5.45,4.71-9.05.97-3.6,1.31-7.45,1.02-11.55ZM314.48,465.01h7.01c1.13,0,1.97.57,2.53,1.69.56,1.13.85,2.34.85,3.65s-.29,2.52-.85,3.65c-.56,1.12-1.43,1.68-2.62,1.68h-6.92v-10.67ZM324.47,501.35c-.68,1.35-1.71,2.03-3.07,2.03h-6.92v-13.11h6.92c1.36,0,2.39.68,3.07,2.03.68,1.35,1.02,2.86,1.02,4.53s-.34,3.17-1.02,4.52Z"/>
          <path class="cls-2" d="M362.78,450.42v52.42h-10.57v-52.42h-9.94v55.12c0,3.42.8,6.35,2.4,8.78,1.59,2.43,3.52,3.65,5.77,3.65h14.12c1.12,0,2.18-.34,3.19-1.02,1.01-.67,1.88-1.57,2.62-2.7.74-1.12,1.32-2.43,1.73-3.92.42-1.48.62-3.08.62-4.79v-55.12h-9.94Z"/>
          <path class="cls-2" d="M412.06,470.55v-7.7c0-1.71-.21-3.31-.62-4.79-.42-1.49-1-2.79-1.74-3.92-.74-1.13-1.61-2.03-2.62-2.7-1-.68-2.07-1.02-3.19-1.02h-14.12c-1.12,0-2.19.34-3.2,1.02-1,.67-1.88,1.57-2.61,2.7-.75,1.13-1.32,2.43-1.74,3.92-.41,1.48-.62,3.08-.62,4.79v17.29c0,1.71.21,3.34.62,4.87.42,1.53.99,2.86,1.74,3.98.73,1.13,1.61,2.01,2.61,2.63,1.01.64,2.08.95,3.2.95h12.34v10.27h-10.56v-5.14h-9.95v7.84c0,1.71.21,3.31.62,4.79.42,1.49.99,2.8,1.74,3.92.73,1.13,1.61,2.03,2.61,2.7,1.01.68,2.08,1.02,3.2,1.02h14.12c1.12,0,2.19-.34,3.19-1.02,1.01-.67,1.88-1.57,2.62-2.7.74-1.12,1.32-2.43,1.74-3.92.41-1.48.62-3.08.62-4.79v-15.67c0-1.71-.21-3.31-.62-4.8-.42-1.48-1-2.79-1.74-3.91-.74-1.13-1.61-2.03-2.62-2.71-1-.67-2.07-1.01-3.19-1.01h-12.34v-11.89h10.56v5h9.95Z"/>
          <path class="cls-2" d="M419.16,450.42v15.13h7.9v52.42h9.95v-52.42h7.9v-15.13h-25.75Z"/>
          <path class="cls-2" d="M469.68,450.42h-11.1l-11.89,67.55h9.94l1.33-7.43h12.34l1.34,7.43h9.94l-11.9-67.55ZM460.18,497.97l4-22.56,3.9,22.56h-7.9Z"/>
        </g>
        <text class="cls-6" transform="translate(148.64 559.87)"><tspan x="0" y="0">Espresso </tspan><tspan class="cls-7" x="258.22" y="0">L</tspan><tspan class="cls-8" x="283.37" y="0">ungo</tspan></text>
      </g>
    </g>
  </g>
</svg>